<mxfile host="app.diagrams.net" modified="2024-06-11T19:43:27.614Z" agent="Mozilla/5.0 (Windows NT 10.0; Win64; x64) AppleWebKit/537.36 (KHTML, like Gecko) Chrome/125.0.0.0 Safari/537.36" etag="2cmDZp5oi65VciLIVXfM" version="24.4.3" type="device">
  <diagram name="1 oldal" id="l7ezkEDOlofI9Y-6xFrL">
    <mxGraphModel dx="1430" dy="814" grid="1" gridSize="10" guides="1" tooltips="1" connect="1" arrows="1" fold="1" page="1" pageScale="1" pageWidth="827" pageHeight="1169" math="0" shadow="0">
      <root>
        <mxCell id="0" />
        <mxCell id="1" parent="0" />
        <mxCell id="4aLC9MuMn5H4giTijCe1-1" value="service 1" style="rounded=0;whiteSpace=wrap;html=1;verticalAlign=middle;fillColor=#fff2cc;strokeColor=#d6b656;" vertex="1" parent="1">
          <mxGeometry x="120" y="260" width="120" height="100" as="geometry" />
        </mxCell>
        <mxCell id="4aLC9MuMn5H4giTijCe1-2" value="service 2" style="rounded=0;whiteSpace=wrap;html=1;fillColor=#fff2cc;strokeColor=#d6b656;" vertex="1" parent="1">
          <mxGeometry x="400" y="260" width="120" height="100" as="geometry" />
        </mxCell>
        <mxCell id="4aLC9MuMn5H4giTijCe1-3" value="trace 1" style="rounded=0;whiteSpace=wrap;html=1;fillColor=#ffe6cc;strokeColor=#d79b00;" vertex="1" parent="1">
          <mxGeometry x="130" y="380" width="380" height="20" as="geometry" />
        </mxCell>
        <mxCell id="4aLC9MuMn5H4giTijCe1-4" value="span 1" style="rounded=0;whiteSpace=wrap;html=1;fillColor=#f8cecc;strokeColor=#b85450;" vertex="1" parent="1">
          <mxGeometry x="130" y="420" width="100" height="20" as="geometry" />
        </mxCell>
        <mxCell id="4aLC9MuMn5H4giTijCe1-5" value="span 2" style="rounded=0;whiteSpace=wrap;html=1;fillColor=#f8cecc;strokeColor=#b85450;" vertex="1" parent="1">
          <mxGeometry x="410" y="420" width="100" height="20" as="geometry" />
        </mxCell>
        <mxCell id="4aLC9MuMn5H4giTijCe1-6" style="edgeStyle=orthogonalEdgeStyle;rounded=0;orthogonalLoop=1;jettySize=auto;html=1;exitX=1;exitY=0.5;exitDx=0;exitDy=0;entryX=0;entryY=0.5;entryDx=0;entryDy=0;" edge="1" parent="1" source="4aLC9MuMn5H4giTijCe1-1" target="4aLC9MuMn5H4giTijCe1-2">
          <mxGeometry relative="1" as="geometry" />
        </mxCell>
        <mxCell id="4aLC9MuMn5H4giTijCe1-7" value="trace context" style="rounded=0;whiteSpace=wrap;html=1;fillColor=#ffe6cc;strokeColor=#d79b00;" vertex="1" parent="1">
          <mxGeometry x="270" y="270" width="100" height="20" as="geometry" />
        </mxCell>
      </root>
    </mxGraphModel>
  </diagram>
</mxfile>
